<svg width="1080" height="1080" viewBox="0 0 1080 1080" fill="none" xmlns="http://www.w3.org/2000/svg">
<path d="M209.606 687.608V693.189H179.312V688.775L200.219 663.251H179.668V657.669H208.946V662.084L188.04 687.608H209.606Z" fill="white"/>
<path d="M225.491 665.788C229.483 665.788 232.527 666.752 234.624 668.68C236.756 670.575 237.821 673.45 237.821 677.307V693.189H231.834V689.891C231.056 691.075 229.939 691.988 228.485 692.631C227.064 693.24 225.338 693.545 223.309 693.545C221.279 693.545 219.503 693.206 217.981 692.53C216.458 691.819 215.274 690.855 214.429 689.637C213.617 688.386 213.211 686.982 213.211 685.426C213.211 682.99 214.107 681.045 215.9 679.59C217.727 678.102 220.586 677.357 224.476 677.357H231.478V676.952C231.478 675.057 230.903 673.602 229.753 672.588C228.637 671.573 226.962 671.065 224.73 671.065C223.207 671.065 221.702 671.302 220.213 671.776C218.759 672.249 217.524 672.909 216.509 673.755L214.023 669.137C215.444 668.055 217.152 667.226 219.148 666.651C221.144 666.076 223.258 665.788 225.491 665.788ZM224.628 688.927C226.218 688.927 227.622 688.572 228.84 687.861C230.091 687.117 230.971 686.068 231.478 684.715V681.569H224.933C221.279 681.569 219.452 682.77 219.452 685.172C219.452 686.322 219.909 687.235 220.822 687.912C221.736 688.589 223.004 688.927 224.628 688.927Z" fill="white"/>
<path d="M280.162 665.788C283.579 665.788 286.285 666.786 288.281 668.782C290.277 670.744 291.275 673.704 291.275 677.662V693.189H284.932V678.474C284.932 676.106 284.408 674.33 283.359 673.146C282.311 671.928 280.805 671.319 278.843 671.319C276.712 671.319 275.004 672.029 273.718 673.45C272.433 674.837 271.79 676.833 271.79 679.438V693.189H265.447V678.474C265.447 676.106 264.923 674.33 263.874 673.146C262.825 671.928 261.32 671.319 259.358 671.319C257.193 671.319 255.467 672.013 254.182 673.399C252.93 674.786 252.304 676.799 252.304 679.438V693.189H245.962V666.092H252V669.543C253.015 668.325 254.283 667.395 255.806 666.752C257.328 666.109 259.02 665.788 260.88 665.788C262.91 665.788 264.703 666.177 266.259 666.955C267.849 667.699 269.1 668.816 270.014 670.304C271.13 668.883 272.568 667.784 274.327 667.006C276.086 666.194 278.031 665.788 280.162 665.788Z" fill="white"/>
<path d="M311.807 693.545C309.067 693.545 306.597 692.953 304.398 691.769C302.199 690.584 300.474 688.944 299.222 686.846C298.005 684.715 297.396 682.313 297.396 679.641C297.396 676.968 298.005 674.584 299.222 672.486C300.474 670.389 302.199 668.748 304.398 667.564C306.597 666.38 309.067 665.788 311.807 665.788C314.581 665.788 317.067 666.38 319.266 667.564C321.465 668.748 323.173 670.389 324.391 672.486C325.643 674.584 326.269 676.968 326.269 679.641C326.269 682.313 325.643 684.715 324.391 686.846C323.173 688.944 321.465 690.584 319.266 691.769C317.067 692.953 314.581 693.545 311.807 693.545ZM311.807 688.115C314.141 688.115 316.069 687.337 317.591 685.781C319.114 684.225 319.875 682.178 319.875 679.641C319.875 677.104 319.114 675.057 317.591 673.501C316.069 671.945 314.141 671.167 311.807 671.167C309.473 671.167 307.544 671.945 306.022 673.501C304.534 675.057 303.789 677.104 303.789 679.641C303.789 682.178 304.534 684.225 306.022 685.781C307.544 687.337 309.473 688.115 311.807 688.115Z" fill="white"/>
<path d="M347.709 665.788C351.126 665.788 353.866 666.786 355.929 668.782C357.993 670.778 359.025 673.738 359.025 677.662V693.189H352.682V678.474C352.682 676.106 352.124 674.33 351.007 673.146C349.891 671.928 348.301 671.319 346.238 671.319C343.903 671.319 342.06 672.029 340.707 673.45C339.353 674.837 338.677 676.85 338.677 679.489V693.189H332.334V666.092H338.372V669.594C339.421 668.342 340.74 667.395 342.33 666.752C343.92 666.109 345.713 665.788 347.709 665.788Z" fill="white"/>
<path d="M377.423 665.788C381.415 665.788 384.459 666.752 386.557 668.68C388.688 670.575 389.753 673.45 389.753 677.307V693.189H383.766V689.891C382.988 691.075 381.871 691.988 380.417 692.631C378.996 693.24 377.271 693.545 375.241 693.545C373.211 693.545 371.435 693.206 369.913 692.53C368.39 691.819 367.206 690.855 366.361 689.637C365.549 688.386 365.143 686.982 365.143 685.426C365.143 682.99 366.039 681.045 367.832 679.59C369.659 678.102 372.518 677.357 376.408 677.357H383.41V676.952C383.41 675.057 382.835 673.602 381.685 672.588C380.569 671.573 378.894 671.065 376.662 671.065C375.139 671.065 373.634 671.302 372.145 671.776C370.691 672.249 369.456 672.909 368.441 673.755L365.955 669.137C367.376 668.055 369.084 667.226 371.08 666.651C373.076 666.076 375.19 665.788 377.423 665.788ZM376.56 688.927C378.15 688.927 379.554 688.572 380.772 687.861C382.023 687.117 382.903 686.068 383.41 684.715V681.569H376.865C373.211 681.569 371.384 682.77 371.384 685.172C371.384 686.322 371.841 687.235 372.754 687.912C373.668 688.589 374.936 688.927 376.56 688.927Z" fill="white"/>
<path d="M422.77 666.092L411.15 693.189H404.604L392.983 666.092H399.58L408.003 686.187L416.681 666.092H422.77Z" fill="white"/>
<path d="M426.734 666.092H433.077V693.189H426.734V666.092ZM429.931 661.627C428.781 661.627 427.816 661.272 427.038 660.561C426.26 659.817 425.871 658.904 425.871 657.821C425.871 656.739 426.26 655.842 427.038 655.132C427.816 654.388 428.781 654.016 429.931 654.016C431.081 654.016 432.045 654.371 432.823 655.081C433.601 655.758 433.99 656.62 433.99 657.669C433.99 658.785 433.601 659.733 432.823 660.511C432.079 661.255 431.115 661.627 429.931 661.627Z" fill="white"/>
<path d="M466.773 666.092L454.088 695.371C452.904 698.314 451.466 700.378 449.775 701.562C448.083 702.78 446.036 703.389 443.635 703.389C442.281 703.389 440.945 703.169 439.626 702.729C438.307 702.289 437.224 701.68 436.378 700.902L438.915 696.234C439.524 696.809 440.235 697.266 441.047 697.604C441.892 697.942 442.738 698.111 443.584 698.111C444.7 698.111 445.614 697.824 446.324 697.249C447.068 696.674 447.745 695.71 448.354 694.356L448.81 693.291L436.987 666.092H443.584L452.109 686.136L460.684 666.092H466.773Z" fill="white"/>
<path d="M497.6 678.322L491.967 684.106V693.189H485.37V657.669H491.967V675.886L509.524 657.669H516.933L502.014 673.552L517.846 693.189H510.133L497.6 678.322Z" fill="white"/>
<path d="M531.436 665.788C535.428 665.788 538.472 666.752 540.57 668.68C542.701 670.575 543.767 673.45 543.767 677.307V693.189H537.779V689.891C537.001 691.075 535.885 691.988 534.43 692.631C533.009 693.24 531.284 693.545 529.254 693.545C527.224 693.545 525.448 693.206 523.926 692.53C522.404 691.819 521.22 690.855 520.374 689.637C519.562 688.386 519.156 686.982 519.156 685.426C519.156 682.99 520.053 681.045 521.846 679.59C523.672 678.102 526.531 677.357 530.421 677.357H537.424V676.952C537.424 675.057 536.849 673.602 535.699 672.588C534.582 671.573 532.908 671.065 530.675 671.065C529.153 671.065 527.647 671.302 526.159 671.776C524.704 672.249 523.469 672.909 522.455 673.755L519.968 669.137C521.389 668.055 523.097 667.226 525.093 666.651C527.089 666.076 529.203 665.788 531.436 665.788ZM530.573 688.927C532.163 688.927 533.567 688.572 534.785 687.861C536.037 687.117 536.916 686.068 537.424 684.715V681.569H530.878C527.224 681.569 525.398 682.77 525.398 685.172C525.398 686.322 525.854 687.235 526.768 687.912C527.681 688.589 528.95 688.927 530.573 688.927Z" fill="white"/>
<path d="M560.28 693.545C558.081 693.545 555.933 693.257 553.835 692.682C551.738 692.107 550.063 691.379 548.812 690.5L551.247 685.679C552.465 686.491 553.92 687.151 555.611 687.658C557.336 688.132 559.028 688.369 560.686 688.369C564.474 688.369 566.369 687.371 566.369 685.375C566.369 684.428 565.878 683.768 564.897 683.396C563.95 683.024 562.411 682.669 560.28 682.33C558.047 681.992 556.22 681.603 554.799 681.163C553.412 680.723 552.194 679.962 551.146 678.88C550.131 677.763 549.624 676.224 549.624 674.262C549.624 671.691 550.689 669.645 552.82 668.122C554.985 666.566 557.895 665.788 561.548 665.788C563.409 665.788 565.269 666.008 567.13 666.448C568.99 666.854 570.513 667.412 571.697 668.122L569.261 672.943C566.961 671.59 564.373 670.913 561.497 670.913C559.637 670.913 558.216 671.201 557.235 671.776C556.288 672.317 555.814 673.044 555.814 673.958C555.814 674.973 556.322 675.7 557.336 676.14C558.385 676.546 559.992 676.935 562.157 677.307C564.322 677.645 566.098 678.034 567.485 678.474C568.872 678.914 570.056 679.658 571.037 680.707C572.052 681.755 572.559 683.244 572.559 685.172C572.559 687.709 571.46 689.739 569.261 691.261C567.062 692.783 564.068 693.545 560.28 693.545Z" fill="white"/>
<path d="M593.042 665.788C595.68 665.788 598.032 666.363 600.095 667.513C602.192 668.663 603.833 670.287 605.017 672.385C606.201 674.482 606.793 676.901 606.793 679.641C606.793 682.381 606.201 684.817 605.017 686.948C603.833 689.045 602.192 690.669 600.095 691.819C598.032 692.969 595.68 693.545 593.042 693.545C591.181 693.545 589.473 693.223 587.917 692.58C586.394 691.938 585.109 690.974 584.06 689.688V693.189H578.022V655.538H584.365V669.391C585.447 668.207 586.716 667.31 588.17 666.701C589.659 666.092 591.283 665.788 593.042 665.788ZM592.331 688.115C594.666 688.115 596.577 687.337 598.065 685.781C599.588 684.225 600.349 682.178 600.349 679.641C600.349 677.104 599.588 675.057 598.065 673.501C596.577 671.945 594.666 671.167 592.331 671.167C590.809 671.167 589.439 671.522 588.221 672.232C587.003 672.909 586.039 673.89 585.329 675.176C584.618 676.461 584.263 677.949 584.263 679.641C584.263 681.332 584.618 682.821 585.329 684.106C586.039 685.392 587.003 686.39 588.221 687.1C589.439 687.777 590.809 688.115 592.331 688.115Z" fill="white"/>
<path d="M612.809 655.538H619.151V693.189H612.809V655.538Z" fill="white"/>
<path d="M637.828 665.788C641.82 665.788 644.865 666.752 646.962 668.68C649.093 670.575 650.159 673.45 650.159 677.307V693.189H644.171V689.891C643.393 691.075 642.277 691.988 640.822 692.631C639.401 693.24 637.676 693.545 635.646 693.545C633.616 693.545 631.84 693.206 630.318 692.53C628.796 691.819 627.612 690.855 626.766 689.637C625.954 688.386 625.548 686.982 625.548 685.426C625.548 682.99 626.445 681.045 628.238 679.59C630.064 678.102 632.923 677.357 636.813 677.357H643.816V676.952C643.816 675.057 643.241 673.602 642.091 672.588C640.974 671.573 639.3 671.065 637.067 671.065C635.545 671.065 634.039 671.302 632.551 671.776C631.096 672.249 629.861 672.909 628.847 673.755L626.36 669.137C627.781 668.055 629.489 667.226 631.485 666.651C633.481 666.076 635.595 665.788 637.828 665.788ZM636.965 688.927C638.555 688.927 639.959 688.572 641.177 687.861C642.429 687.117 643.308 686.068 643.816 684.715V681.569H637.27C633.616 681.569 631.79 682.77 631.79 685.172C631.79 686.322 632.246 687.235 633.16 687.912C634.073 688.589 635.342 688.927 636.965 688.927Z" fill="white"/>
<path d="M664.337 670.05C666.164 667.209 669.378 665.788 673.979 665.788V671.826C673.437 671.725 672.947 671.674 672.507 671.674C670.038 671.674 668.109 672.402 666.722 673.856C665.335 675.277 664.642 677.341 664.642 680.047V693.189H658.299V666.092H664.337V670.05Z" fill="white"/>
<path d="M726.868 693.189L726.817 669.645L715.146 689.13H712.203L700.532 669.949V693.189H694.24V657.669H699.669L713.776 681.214L727.629 657.669H733.058L733.109 693.189H726.868Z" fill="white"/>
<path d="M752.446 665.788C756.438 665.788 759.482 666.752 761.58 668.68C763.711 670.575 764.777 673.45 764.777 677.307V693.189H758.789V689.891C758.011 691.075 756.895 691.988 755.44 692.631C754.019 693.24 752.294 693.545 750.264 693.545C748.234 693.545 746.458 693.206 744.936 692.53C743.414 691.819 742.23 690.855 741.384 689.637C740.572 688.386 740.166 686.982 740.166 685.426C740.166 682.99 741.063 681.045 742.856 679.59C744.682 678.102 747.541 677.357 751.431 677.357H758.434V676.952C758.434 675.057 757.859 673.602 756.708 672.588C755.592 671.573 753.918 671.065 751.685 671.065C750.163 671.065 748.657 671.302 747.169 671.776C745.714 672.249 744.479 672.909 743.465 673.755L740.978 669.137C742.399 668.055 744.107 667.226 746.103 666.651C748.099 666.076 750.213 665.788 752.446 665.788ZM751.583 688.927C753.173 688.927 754.577 688.572 755.795 687.861C757.047 687.117 757.926 686.068 758.434 684.715V681.569H751.888C748.234 681.569 746.408 682.77 746.408 685.172C746.408 686.322 746.864 687.235 747.778 687.912C748.691 688.589 749.96 688.927 751.583 688.927Z" fill="white"/>
<path d="M783.979 681.569L779.26 686.035V693.189H772.917V655.538H779.26V678.271L792.402 666.092H800.014L788.698 677.459L801.079 693.189H793.367L783.979 681.569Z" fill="white"/>
<path d="M821.465 691.718C820.721 692.327 819.808 692.783 818.725 693.088C817.676 693.392 816.56 693.545 815.376 693.545C812.399 693.545 810.099 692.766 808.475 691.21C806.851 689.654 806.039 687.388 806.039 684.411V671.37H801.574V666.295H806.039V660.105H812.382V666.295H819.638V671.37H812.382V684.259C812.382 685.578 812.703 686.593 813.346 687.303C813.989 687.98 814.919 688.318 816.137 688.318C817.558 688.318 818.742 687.946 819.689 687.202L821.465 691.718Z" fill="white"/>
<path d="M837.034 665.788C841.026 665.788 844.071 666.752 846.168 668.68C848.299 670.575 849.365 673.45 849.365 677.307V693.189H843.377V689.891C842.599 691.075 841.483 691.988 840.028 692.631C838.608 693.24 836.882 693.545 834.853 693.545C832.823 693.545 831.047 693.206 829.525 692.53C828.002 691.819 826.818 690.855 825.973 689.637C825.161 688.386 824.755 686.982 824.755 685.426C824.755 682.99 825.651 681.045 827.444 679.59C829.271 678.102 832.129 677.357 836.02 677.357H843.022V676.952C843.022 675.057 842.447 673.602 841.297 672.588C840.181 671.573 838.506 671.065 836.273 671.065C834.751 671.065 833.246 671.302 831.757 671.776C830.303 672.249 829.068 672.909 828.053 673.755L825.567 669.137C826.987 668.055 828.696 667.226 830.692 666.651C832.688 666.076 834.802 665.788 837.034 665.788ZM836.172 688.927C837.762 688.927 839.166 688.572 840.384 687.861C841.635 687.117 842.515 686.068 843.022 684.715V681.569H836.476C832.823 681.569 830.996 682.77 830.996 685.172C830.996 686.322 831.453 687.235 832.366 687.912C833.28 688.589 834.548 688.927 836.172 688.927Z" fill="white"/>
<path d="M872.525 665.788C875.164 665.788 877.515 666.363 879.579 667.513C881.676 668.663 883.317 670.287 884.501 672.385C885.685 674.482 886.277 676.901 886.277 679.641C886.277 682.381 885.685 684.817 884.501 686.948C883.317 689.045 881.676 690.669 879.579 691.819C877.515 692.969 875.164 693.545 872.525 693.545C870.665 693.545 868.956 693.223 867.4 692.58C865.878 691.938 864.593 690.974 863.544 689.688V693.189H857.505V655.538H863.848V669.391C864.931 668.207 866.199 667.31 867.654 666.701C869.143 666.092 870.766 665.788 872.525 665.788ZM871.815 688.115C874.149 688.115 876.061 687.337 877.549 685.781C879.071 684.225 879.832 682.178 879.832 679.641C879.832 677.104 879.071 675.057 877.549 673.501C876.061 671.945 874.149 671.167 871.815 671.167C870.293 671.167 868.923 671.522 867.705 672.232C866.487 672.909 865.523 673.89 864.812 675.176C864.102 676.461 863.747 677.949 863.747 679.641C863.747 681.332 864.102 682.821 864.812 684.106C865.523 685.392 866.487 686.39 867.705 687.1C868.923 687.777 870.293 688.115 871.815 688.115Z" fill="white"/>
<path d="M892.292 666.092H898.635V693.189H892.292V666.092ZM895.489 661.627C894.339 661.627 893.375 661.272 892.597 660.561C891.819 659.817 891.43 658.904 891.43 657.821C891.43 656.739 891.819 655.842 892.597 655.132C893.375 654.388 894.339 654.016 895.489 654.016C896.639 654.016 897.603 654.371 898.381 655.081C899.159 655.758 899.549 656.62 899.549 657.669C899.549 658.785 899.159 659.733 898.381 660.511C897.637 661.255 896.673 661.627 895.489 661.627Z" fill="white"/>
<path d="M259.9 472.37C259.284 472.658 259.383 473.158 259.375 473.582C259.345 474.749 259.352 475.917 259.352 477.084C259.352 517.156 259.352 557.228 259.345 597.3C259.345 602.446 259.9 601.84 254.926 601.862C249.533 601.893 244.141 601.87 238.748 601.862C237.813 601.862 236.877 601.832 235.942 601.771C235.425 601.733 235.082 601.4 235.06 600.869C235.014 599.702 234.976 598.535 234.976 597.368C234.976 556.947 234.976 516.519 234.976 476.099C234.976 445.137 234.976 414.175 234.976 383.222C234.976 378.401 234.474 378.939 239.288 378.909C242.452 378.886 245.616 378.894 248.788 378.909C252.461 378.924 251.868 378.591 253.192 382.069C255.603 388.398 257.937 394.757 260.31 401.101C273.126 435.337 285.934 469.573 298.788 503.786C299.198 504.877 299.046 506.355 300.484 506.931C301.168 505.878 300.826 504.703 300.826 503.589C300.849 463.631 300.841 423.68 300.849 383.722C300.849 382.441 300.894 381.152 300.963 379.879C300.993 379.364 301.351 379.045 301.86 378.985C302.438 378.924 303.032 378.909 303.617 378.909C309.945 378.909 316.281 378.909 322.609 378.909C323.194 378.909 323.78 378.909 324.366 378.962C325.035 379.023 325.415 379.432 325.453 380.099C325.499 381.031 325.522 381.963 325.522 382.896C325.522 454.513 325.522 526.13 325.522 597.747C325.522 602.105 325.704 601.764 321.552 601.771C318.152 601.771 314.752 601.786 311.352 601.771C308.645 601.756 308.622 601.749 307.625 599.103C304.994 592.108 302.385 585.104 299.761 578.101C286.999 543.971 274.244 509.842 261.459 475.72C261.033 474.575 260.843 473.279 259.9 472.37Z" fill="white"/>
<path d="M714.988 471.249V475.721C714.988 516.036 714.988 556.35 714.988 596.657C714.988 597.824 715.003 598.999 714.95 600.159C714.889 601.409 714.547 601.743 713.178 601.75C706.257 601.773 699.343 601.773 692.422 601.75C691.114 601.75 690.863 601.424 690.802 600.022C690.756 599.09 690.779 598.15 690.779 597.218C690.779 525.942 690.779 454.658 690.779 383.382C690.779 382.912 690.779 382.45 690.779 381.98C690.772 378.789 690.779 378.91 693.882 378.918C697.868 378.918 701.853 378.971 705.838 378.895C707.23 378.873 707.96 379.373 708.432 380.669C710.265 385.717 712.174 390.742 714.06 395.774C727.522 431.769 740.984 467.763 754.454 503.75C754.857 504.818 755.306 505.872 755.724 506.895C756.622 506.895 756.439 506.266 756.462 505.894C756.523 504.727 756.5 503.56 756.5 502.393C756.5 462.783 756.5 423.166 756.508 383.557C756.508 378.206 755.96 378.963 761.223 378.926C766.737 378.888 772.244 378.918 777.758 378.926C778.458 378.926 779.165 378.941 779.865 378.963C780.739 378.986 781.082 379.524 781.112 380.313C781.142 381.366 781.158 382.412 781.158 383.466C781.158 397.957 781.158 412.441 781.158 426.933C781.158 483.49 781.158 540.039 781.158 596.596C781.158 597.763 781.18 598.938 781.12 600.098C781.051 601.409 780.739 601.735 779.401 601.75C776.115 601.788 772.837 601.818 769.551 601.765C763.315 601.659 764.79 602.789 762.546 596.793C747.305 556.1 732.109 515.399 716.882 474.698C716.524 473.735 716.35 472.674 714.988 471.242V471.249Z" fill="white"/>
<path d="M457.242 490.109C457.242 454.478 457.242 418.856 457.242 383.225C457.242 378.389 456.733 378.928 461.547 378.92C488.859 378.905 516.171 378.905 543.483 378.92C547.94 378.92 547.659 378.314 547.674 383.013C547.689 387.682 547.674 392.358 547.674 397.027C547.674 397.846 547.659 398.664 547.621 399.475C547.583 400.271 547.195 400.802 546.343 400.839C545.293 400.885 544.236 400.9 543.179 400.9C524.073 400.9 504.968 400.9 485.862 400.9C481.261 400.9 481.542 400.635 481.542 405.342C481.542 429.406 481.542 453.47 481.542 477.535C481.542 482.097 481.39 481.787 485.695 481.787C500.465 481.787 515.236 481.787 530.006 481.787C531.063 481.787 532.12 481.772 533.17 481.817C534.508 481.878 534.759 482.097 534.759 483.553C534.79 489.859 534.79 496.165 534.759 502.478C534.759 503.987 534.44 504.229 532.85 504.29C531.915 504.328 530.972 504.305 530.036 504.305C515.152 504.305 500.26 504.305 485.376 504.305C481.398 504.305 481.542 504.002 481.542 508.095C481.542 530.173 481.542 552.252 481.542 574.33C481.542 578.529 481.337 578.249 485.627 578.249C504.854 578.249 524.073 578.249 543.301 578.249C547.955 578.249 547.674 577.809 547.674 582.592C547.674 587.73 547.681 592.869 547.674 598.008C547.674 598.94 547.628 599.873 547.529 600.797C547.476 601.29 547.103 601.631 546.594 601.669C545.78 601.722 544.959 601.737 544.137 601.737C516.354 601.737 488.578 601.737 460.794 601.737C457.029 601.737 457.242 601.874 457.242 598.016C457.242 562.037 457.242 526.058 457.242 490.078V490.109Z" fill="white"/>
<path d="M379.124 501.26C379.124 469.245 379.124 437.237 379.116 405.222C379.116 400.682 379.709 400.917 374.728 400.917C366.407 400.917 358.079 400.917 349.758 400.917C348.823 400.917 347.88 400.902 346.952 400.834C346.298 400.781 345.902 400.364 345.834 399.712C345.773 399.136 345.75 398.545 345.75 397.961C345.75 392.587 345.75 387.214 345.75 381.84C345.75 381.256 345.78 380.673 345.826 380.089C345.879 379.43 346.214 378.998 346.906 378.967C347.727 378.929 348.549 378.922 349.37 378.922C377.276 378.922 405.181 378.922 433.079 378.922C437.193 378.922 436.874 378.566 436.889 382.681C436.897 387.706 436.889 392.731 436.889 397.756C436.889 398.454 436.866 399.159 436.805 399.856C436.76 400.364 436.44 400.735 435.931 400.781C434.881 400.864 433.832 400.917 432.774 400.917C424.454 400.925 416.125 400.917 407.805 400.917C406.869 400.917 405.926 400.902 404.991 400.955C403.85 401.023 403.485 401.349 403.424 402.418C403.356 403.699 403.371 404.987 403.371 406.268C403.371 469.707 403.371 533.154 403.371 596.592C403.371 597.873 403.371 599.162 403.302 600.443C403.264 601.239 402.8 601.708 401.964 601.739C401.614 601.754 401.264 601.769 400.906 601.769C394.457 601.769 388.007 601.769 381.565 601.769C381.101 601.769 380.63 601.731 380.166 601.686C379.641 601.633 379.291 601.299 379.253 600.791C379.177 599.632 379.139 598.465 379.139 597.297C379.139 565.282 379.139 533.275 379.139 501.26H379.124Z" fill="white"/>
<path d="M202.4 490.764C202.4 526.16 202.4 561.547 202.4 596.943C202.4 598.11 202.4 599.277 202.354 600.445C202.324 601.271 201.837 601.703 201.015 601.741C200.43 601.771 199.844 601.778 199.259 601.778C193.166 601.778 187.067 601.778 180.974 601.778C180.389 601.778 179.803 601.771 179.218 601.718C178.563 601.665 178.122 601.293 178.084 600.626C178.023 599.459 178.008 598.292 178.008 597.125C178.008 552.74 178.008 508.348 178.008 463.964C178.008 437.33 178.008 410.696 178.008 384.07C178.008 383.016 177.985 381.97 178.016 380.917C178.069 379.083 178.176 378.939 180.077 378.931C186.876 378.908 193.676 378.908 200.475 378.931C202.149 378.931 202.316 379.128 202.377 380.727C202.422 381.773 202.4 382.827 202.4 383.88C202.4 419.503 202.4 455.134 202.4 490.757V490.764Z" fill="white"/>
<path d="M664.557 597.825C655.879 577.148 647.185 556.48 638.5 535.811C633.343 523.54 628.179 511.269 623.014 498.998C622.695 498.248 622.353 497.505 622.064 496.739C621.516 495.254 621.79 494.784 623.265 494.625C623.729 494.579 624.201 494.564 624.672 494.541C629.707 494.276 634.294 492.684 638.53 490.001C643.04 487.144 646.805 483.506 649.961 479.231C654.251 473.418 657.164 466.945 659.141 460.048C661.971 450.187 662.876 440.144 662.222 429.89C661.606 420.188 659.149 411.032 655.027 402.271C653.179 398.329 650.866 394.676 647.953 391.44C640.629 383.3 631.7 378.744 620.466 378.866C605.696 379.025 590.926 378.904 576.163 378.904C575.228 378.904 574.285 378.904 573.349 378.926C572.535 378.941 572.018 379.32 572.003 380.177C571.98 381.23 571.973 382.276 571.973 383.33C571.973 454.697 571.973 526.071 571.973 597.438C571.973 598.371 571.957 599.31 571.988 600.243C572.049 601.842 572.3 602.145 573.844 602.092C580.521 601.88 587.199 601.645 593.869 601.364C595.771 601.281 595.839 601.137 595.915 599.326C595.946 598.628 595.93 597.923 595.93 597.226C595.961 586.244 595.976 575.269 596.022 564.286C596.105 544.428 596.204 524.571 596.318 504.713C596.318 503.712 596.045 502.644 596.98 501.295C597.634 502.757 598.129 503.803 598.57 504.872C607.567 526.556 616.55 548.233 625.547 569.918C629.525 579.521 633.495 589.124 637.511 598.712C639.017 602.297 638.347 601.834 642.34 601.842C649.376 601.865 656.403 601.857 663.439 601.834C664.199 601.834 665.066 602.145 665.872 601.273C665.454 600.174 665.043 598.977 664.549 597.81L664.557 597.825ZM599.254 472.864C598.669 472.864 598.083 472.842 597.497 472.819C596.813 472.781 596.425 472.395 596.394 471.728C596.349 470.682 596.334 469.628 596.334 468.575C596.334 458.062 596.334 447.542 596.334 437.029C596.334 426.047 596.326 415.065 596.334 404.082C596.334 400.959 596.372 400.921 599.422 400.914C606.221 400.891 613.021 400.952 619.82 400.891C623.319 400.861 626.201 402.164 628.703 404.469C630.985 406.561 632.59 409.13 633.86 411.919C635.762 416.11 636.895 420.522 637.328 425.077C638.066 432.77 638.089 440.478 637.336 448.171C636.948 452.127 636.028 455.993 634.651 459.745C633.297 463.436 631.13 466.589 628.468 469.431C626.285 471.765 623.638 472.948 620.345 472.902C613.31 472.804 606.274 472.872 599.239 472.872L599.254 472.864Z" fill="white"/>
<path d="M901.995 516.4C901.995 488.599 901.995 460.798 901.995 432.997C901.995 421.719 899.463 411.002 894.808 400.77C892.374 395.411 889.149 390.538 885.088 386.263C878.753 379.578 871.002 375.97 861.67 376.001C858.392 376.008 855.106 376.023 851.821 376.001C843.964 375.948 837.165 378.691 831.24 383.724C827.003 387.324 823.588 391.599 820.82 396.404C817.77 401.702 815.549 407.341 813.998 413.238C812.203 420.059 811.602 427.025 811.609 434.058C811.64 452.749 811.617 471.44 811.617 490.13C811.617 508.472 811.617 526.807 811.617 545.149C811.617 547.718 811.655 550.287 811.792 552.857C812.347 563.392 815.07 573.336 820.097 582.636C822.501 587.085 825.361 591.201 829.011 594.733C835.256 600.766 842.671 604.04 851.44 604.07C855.076 604.085 858.712 604.093 862.339 604.063C864.096 604.048 865.846 603.957 867.587 603.623C875.011 602.206 881.103 598.522 886.122 592.974C889.043 589.745 891.439 586.145 893.432 582.287C898.877 571.729 901.836 560.519 901.957 548.643C902.072 537.895 901.988 527.148 901.988 516.4H901.995ZM877.52 490.365H877.505C877.505 510.579 877.498 530.793 877.513 551.007C877.513 555.585 877.171 560.11 875.893 564.529C875.079 567.348 873.999 570.047 872.501 572.578C870.546 575.875 867.907 578.452 864.576 580.362C863.229 581.135 861.853 581.62 860.248 581.575C857.791 581.499 855.319 581.507 852.863 581.575C851.273 581.613 849.881 581.135 848.512 580.415C844.656 578.369 841.857 575.329 839.872 571.479C837.362 566.613 836.259 561.391 835.834 555.995C835.712 554.486 835.735 552.955 835.735 551.439C835.735 510.776 835.742 470.121 835.712 429.458C835.712 424.16 836.244 418.968 837.902 413.92C839.195 409.986 841.135 406.432 844.116 403.476C846.733 400.876 849.775 399.406 853.547 399.542C855.654 399.618 857.768 399.618 859.875 399.542C862.857 399.436 865.374 400.49 867.595 402.384C871.626 405.825 874.379 410.1 875.801 415.186C876.973 419.37 877.52 423.637 877.52 427.995C877.49 448.793 877.505 469.59 877.505 490.388L877.52 490.365Z" fill="white"/>
</svg>
